<svg width="209" height="209" viewBox="0 0 209 209" fill="none" xmlns="http://www.w3.org/2000/svg">
<g clip-path="url(#clip0_154_3)">
<path d="M105.727 28.9665L103.466 48.8118L99.8944 49.3635L94.2026 36.6052C93.9634 36.0626 93.7738 35.4557 93.6336 34.7901L93.5792 34.8004C93.634 35.4346 93.6213 36.064 93.5444 36.6805L91.9797 50.5879L88.3282 51.1509L80.0484 32.9361L83.5115 32.3994L89.1272 45.8053C89.3622 46.3674 89.5439 46.9653 89.6752 47.5964L89.7409 47.5869C89.7077 47.1294 89.7347 46.4982 89.8301 45.6965L91.5692 31.1512L94.8237 30.6479L100.617 44.137C100.814 44.5946 100.996 45.1501 101.16 45.7948L101.215 45.7845C101.172 45.3406 101.183 44.7392 101.25 43.9836L102.461 29.4634L105.727 28.9609L105.727 28.9665Z" fill="#303030"/>
<path d="M113.361 50.0797L110.099 49.6327L112.697 30.546L115.959 30.993L113.361 50.0797Z" fill="#303030"/>
<path d="M134.236 38.9784L128.999 37.1828L123.641 52.8389L120.615 51.8008L125.973 36.1447L120.75 34.3529L121.63 31.7859L135.116 36.4115L134.236 38.9784Z" fill="#303030"/>
<path d="M142.783 64.368L140.184 62.478L145.097 55.7229L137.764 50.3851L132.85 57.1402L130.265 55.2596L141.593 39.684L144.178 41.5646L139.414 48.1154L146.748 53.4532L151.512 46.9024L154.11 48.7924L142.783 64.368Z" fill="#303030"/>
<path d="M152.853 79.3883C151.59 76.9138 151.383 74.5249 152.225 72.2181C153.067 69.9114 154.775 68.1038 157.345 66.7948C160.106 65.389 162.692 65.0224 165.11 65.7012C167.527 66.3799 169.4 68.0182 170.728 70.6216C171.957 73.0315 172.149 75.3799 171.306 77.6667C170.463 79.9536 168.752 81.7526 166.176 83.0668C163.377 84.4954 160.776 84.8694 158.381 84.1922C155.983 83.512 154.142 81.9155 152.856 79.3913L152.853 79.3883ZM168.151 71.752C167.35 70.1806 166.11 69.1974 164.435 68.8139C162.76 68.4249 160.965 68.7226 159.048 69.6959C157.141 70.667 155.851 71.9304 155.175 73.4799C154.499 75.0295 154.555 76.5824 155.346 78.1305C156.184 79.7752 157.403 80.788 158.995 81.1741C160.588 81.5603 162.382 81.2426 164.375 80.2238C166.424 79.1778 167.773 77.9102 168.419 76.4179C169.066 74.9257 168.977 73.3704 168.151 71.752Z" fill="#303030"/>
<path d="M167.376 103.302C162.015 104.02 158.993 101.837 158.312 96.7575C157.658 91.8921 159.912 89.1137 165.068 88.4274L176.742 86.8682L177.169 90.0386L166.142 91.5105C162.396 92.0132 160.717 93.7155 161.111 96.6292C161.489 99.4344 163.48 100.595 167.092 100.114L178.316 98.6133L178.742 101.784L167.37 103.302L167.376 103.302Z" fill="#303030"/>
<path d="M156.847 122.178L157.485 118.5L163.092 116.353C163.606 116.16 164.052 115.963 164.431 115.76C164.807 115.555 165.122 115.34 165.384 115.107C165.646 114.874 165.848 114.608 165.999 114.308C166.15 114.007 166.262 113.656 166.329 113.26L166.551 111.989L158.846 110.647L159.389 107.511L178.371 110.81L177.289 117.057C177.134 117.948 176.886 118.75 176.545 119.464C176.204 120.178 175.772 120.775 175.244 121.255C174.716 121.736 174.11 122.077 173.415 122.28C172.72 122.483 171.946 122.51 171.092 122.36C170.421 122.245 169.822 122.036 169.297 121.742C168.772 121.448 168.323 121.077 167.95 120.635C167.576 120.193 167.278 119.686 167.06 119.12C166.843 118.553 166.705 117.927 166.648 117.253L166.597 117.244C166.344 117.554 166.077 117.818 165.799 118.033C165.521 118.248 165.236 118.449 164.952 118.638C164.664 118.824 164.344 119.002 163.993 119.175C163.639 119.346 163.236 119.532 162.772 119.734L156.852 122.184L156.847 122.178ZM175.272 113.504L169.106 112.431L168.652 115.051C168.568 115.537 168.567 115.998 168.644 116.433C168.724 116.871 168.877 117.26 169.107 117.61C169.337 117.96 169.639 118.252 170.018 118.494C170.394 118.732 170.836 118.893 171.338 118.979C172.246 119.137 173.009 118.975 173.617 118.49C174.23 118.004 174.629 117.224 174.814 116.148L175.275 113.501L175.272 113.504Z" fill="#303030"/>
<path d="M157.456 135.917L151.609 132.094L153.349 129.429L169.481 139.973L166.285 144.865C165.074 146.716 163.707 147.872 162.178 148.324C160.651 148.779 159.102 148.498 157.534 147.472C155.966 146.446 155.029 145.077 154.731 143.36C154.426 141.643 154.868 139.879 156.055 138.065L157.456 135.917ZM165.532 141.197L159.638 137.345L158.508 139.077C157.758 140.226 157.454 141.273 157.594 142.219C157.735 143.164 158.29 143.955 159.258 144.588C161.156 145.83 162.823 145.348 164.265 143.143L165.537 141.197L165.532 141.197Z" fill="#303030"/>
<path d="M133.557 151.248L136.412 148.846L142.086 150.816C142.605 151 143.073 151.137 143.491 151.223C143.909 151.309 144.29 151.347 144.639 151.335C144.987 151.323 145.317 151.252 145.623 151.119C145.932 150.988 146.243 150.792 146.552 150.534L147.537 149.704L142.501 143.716L144.936 141.669L157.344 156.417L152.492 160.497C151.798 161.078 151.094 161.532 150.373 161.857C149.653 162.183 148.936 162.361 148.225 162.393C147.513 162.425 146.827 162.292 146.166 162C145.505 161.707 144.894 161.229 144.336 160.562C143.897 160.04 143.573 159.497 143.358 158.933C143.143 158.37 143.041 157.797 143.039 157.218C143.037 156.638 143.137 156.06 143.338 155.483C143.539 154.907 143.83 154.342 144.222 153.79L144.188 153.751C143.793 153.825 143.421 153.853 143.071 153.839C142.719 153.823 142.373 153.796 142.034 153.752C141.695 153.709 141.335 153.641 140.955 153.543C140.574 153.446 140.144 153.328 139.66 153.184L133.551 151.242L133.557 151.248ZM153.246 156.48L149.213 151.687L147.178 153.399C146.802 153.714 146.501 154.066 146.282 154.452C146.063 154.838 145.928 155.236 145.879 155.653C145.833 156.069 145.874 156.487 146.009 156.915C146.146 157.34 146.374 157.749 146.703 158.14C147.296 158.845 147.983 159.21 148.764 159.234C149.545 159.258 150.352 158.916 151.19 158.215L153.246 156.485L153.246 156.48Z" fill="#303030"/>
<path d="M125.619 154.385C128.176 153.304 130.575 153.269 132.814 154.278C135.053 155.286 136.737 157.12 137.858 159.777C139.067 162.632 139.244 165.242 138.396 167.602C137.547 169.962 135.778 171.712 133.09 172.848C130.597 173.9 128.244 173.921 126.024 172.917C123.805 171.907 122.132 170.074 121.003 167.408C119.781 164.513 119.59 161.893 120.437 159.55C121.284 157.207 123.009 155.485 125.619 154.385ZM132.149 170.199C133.774 169.51 134.839 168.347 135.343 166.703C135.848 165.06 135.683 163.248 134.846 161.269C134.013 159.297 132.846 157.918 131.343 157.131C129.846 156.344 128.293 156.289 126.694 156.965C124.993 157.682 123.897 158.821 123.401 160.383C122.905 161.945 123.092 163.759 123.963 165.819C124.861 167.939 126.031 169.376 127.471 170.127C128.911 170.878 130.469 170.903 132.147 170.196L132.149 170.199Z" fill="#303030"/>
<path d="M106.254 175.782L113.414 175.008L112.789 169.251L106.19 169.966L105.899 167.28L112.498 166.565L111.626 158.55L114.804 158.208L116.887 177.364L106.552 178.483L106.257 175.785L106.254 175.782Z" fill="#303030"/>
<path d="M91.3749 157.802L102.102 159.17L99.6781 178.28L89.3765 176.965L89.7194 174.273L96.8495 175.184L97.5343 169.774L90.9644 168.936L91.3035 166.258L97.8734 167.095L98.5919 161.444L91.0358 160.481L91.3749 157.802Z" fill="#303030"/>
<path d="M89.705 158.154L88.5106 161.222C88.332 160.864 88.0937 160.511 87.7901 160.162C87.4866 159.813 87.1503 159.487 86.7783 159.186C86.4068 158.88 86.0242 158.61 85.6254 158.37C85.2296 158.128 84.8498 157.94 84.492 157.801C83.2398 157.315 82.2274 157.159 81.4489 157.339C80.6734 157.516 80.1307 158.004 79.8211 158.796C79.656 159.22 79.6131 159.632 79.699 160.023C79.7849 160.413 79.9577 160.813 80.2236 161.216C80.4895 161.619 80.8252 162.035 81.2305 162.465C81.6359 162.895 82.0704 163.352 82.5371 163.835C83.0208 164.397 83.4574 164.948 83.8553 165.485C84.2532 166.022 84.5655 166.569 84.7953 167.125C85.0251 167.681 85.1517 168.258 85.1755 168.851C85.1963 169.446 85.0755 170.085 84.8101 170.77C84.4802 171.612 84.0074 172.271 83.3837 172.744C82.76 173.218 82.0595 173.536 81.2822 173.699C80.5048 173.862 79.6806 173.886 78.8096 173.771C77.9412 173.659 77.0914 173.441 76.266 173.118C74.3892 172.386 73.1014 171.64 72.4082 170.879L73.5542 167.938C74.2868 169.066 75.455 169.948 77.0567 170.57C77.497 170.742 77.9573 170.87 78.4259 170.96C78.8975 171.047 79.3431 171.061 79.7653 171.006C80.1848 170.948 80.5645 170.814 80.8989 170.597C81.2334 170.38 81.482 170.058 81.6471 169.635C81.8021 169.236 81.8569 168.855 81.7998 168.498C81.7483 168.141 81.6068 167.777 81.378 167.411C81.1491 167.044 80.8483 166.656 80.4755 166.245C80.1027 165.834 79.6626 165.377 79.1577 164.875C78.6604 164.303 78.2026 163.733 77.7849 163.156C77.3699 162.581 77.0348 161.995 76.7826 161.395C76.5304 160.795 76.3837 160.182 76.3424 159.558C76.3011 158.933 76.4144 158.279 76.679 157.606C77.0335 156.695 77.5172 156 78.1274 155.517C78.7377 155.034 79.4295 154.718 80.2061 154.566C80.9796 154.417 81.8083 154.41 82.686 154.551C83.5637 154.692 84.4539 154.938 85.3539 155.287C85.6566 155.404 86.0125 155.571 86.4354 155.79C86.8556 156.006 87.2769 156.248 87.7049 156.515C88.1302 156.78 88.5236 157.056 88.8825 157.341C89.2414 157.627 89.5167 157.895 89.705 158.154Z" fill="#303030"/>
<path d="M76.7242 152.823L74.7998 155.495C74.717 155.102 74.5752 154.702 74.3694 154.289C74.1635 153.876 73.9202 153.474 73.6332 153.089C73.3493 152.702 73.0465 152.342 72.7219 152.011C72.4002 151.677 72.0803 151.4 71.7682 151.175C70.6782 150.389 69.7367 149.986 68.9385 149.961C68.143 149.939 67.4979 150.272 67.0004 150.964C66.7314 151.335 66.5915 151.721 66.5749 152.121C66.5584 152.521 66.6246 152.95 66.7823 153.405C66.9401 153.86 67.1603 154.35 67.4439 154.865C67.727 155.385 68.0338 155.932 68.3663 156.515C68.6929 157.183 68.9817 157.825 69.2297 158.445C69.4777 159.064 69.6444 159.675 69.7274 160.269C69.813 160.866 69.7892 161.452 69.6637 162.037C69.5355 162.618 69.26 163.207 68.8283 163.804C68.2995 164.538 67.6757 165.054 66.9534 165.36C66.2342 165.662 65.4731 165.795 64.6787 165.757C63.8843 165.718 63.0772 165.537 62.2661 165.211C61.4523 164.882 60.6846 164.461 59.9659 163.944C58.3294 162.766 57.2716 161.719 56.7923 160.809L58.6383 158.248C59.0636 159.528 59.9763 160.669 61.3702 161.677C61.755 161.956 62.1651 162.196 62.5977 162.396C63.0304 162.596 63.4595 162.725 63.8829 162.775C64.3062 162.825 64.7043 162.79 65.0836 162.662C65.4598 162.535 65.7824 162.287 66.0483 161.918C66.2988 161.568 66.445 161.214 66.4813 160.855C66.5176 160.495 66.4737 160.111 66.347 159.698C66.2204 159.284 66.0255 158.835 65.7659 158.342C65.5089 157.852 65.1969 157.299 64.8326 156.685C64.4925 156.008 64.1914 155.34 63.9349 154.68C63.6784 154.021 63.5006 153.366 63.4038 152.726C63.3101 152.084 63.3228 151.454 63.439 150.841C63.5583 150.224 63.8264 149.621 64.2516 149.035C64.8211 148.244 65.4645 147.69 66.1759 147.378C66.8903 147.064 67.6372 146.933 68.4251 146.982C69.2131 147.032 70.013 147.235 70.8278 147.589C71.6427 147.944 72.4414 148.407 73.2275 148.971C73.4914 149.159 73.796 149.412 74.1473 149.725C74.5012 150.041 74.8479 150.379 75.1927 150.746C75.5375 151.112 75.8485 151.476 76.1254 151.843C76.4023 152.21 76.6027 152.538 76.7178 152.834L76.7242 152.823Z" fill="#303030"/>
<path d="M63.2419 140.515L65.4941 142.917L51.45 156.097L49.1978 153.695L63.2445 140.518L63.2419 140.515Z" fill="#303030"/>
<path d="M56.8339 130.943C58.1974 133.362 58.5066 135.741 57.7559 138.08C57.0051 140.418 55.3765 142.294 52.867 143.709C50.1692 145.229 47.5983 145.699 45.1539 145.123C42.7125 144.544 40.7747 142.983 39.338 140.437C38.0126 138.08 37.7231 135.741 38.4697 133.422C39.2189 131.106 40.8528 129.237 43.3739 127.817C46.1127 126.277 48.693 125.794 51.1145 126.374C53.536 126.954 55.4454 128.476 56.8339 130.943ZM41.8606 139.201C42.7259 140.737 44.0038 141.667 45.6946 141.983C47.3855 142.3 49.1661 141.936 51.0372 140.881C52.9024 139.83 54.1415 138.515 54.7516 136.939C55.3617 135.362 55.2432 133.816 54.3905 132.3C53.4849 130.693 52.2292 129.729 50.6205 129.409C49.0119 129.09 47.2349 129.482 45.2845 130.58C43.2811 131.708 41.9849 133.031 41.3986 134.55C40.8154 136.066 40.9702 137.618 41.8606 139.201Z" fill="#303030"/>
<path d="M48.8876 104.846L49.4416 108.296L36.9256 119.625C36.6089 119.911 36.2721 120.161 35.9155 120.371L35.9269 120.451C36.3208 120.314 37.1893 120.141 38.5242 119.927L50.9898 117.928L51.4812 120.979L32.4612 124.029L31.8692 120.352L44.1058 109.383C44.6128 108.921 44.9618 108.617 45.158 108.479L45.1503 108.427C44.6581 108.596 43.8143 108.78 42.6111 108.969L30.3541 110.934L29.8646 107.898L48.8846 104.848L48.8876 104.846Z" fill="#303030"/>
<path d="M51.8249 85.921L51.2254 89.3754L46.097 90.2445L44.8056 97.7093L49.3533 100.189L48.7576 103.629L31.0053 93.22L31.6197 89.6733L51.8223 85.918L51.8249 85.921ZM43.3849 90.6304L35.3562 91.9486C35.0966 91.984 34.6828 92.0002 34.1209 91.9917L34.1117 92.042C34.6004 92.2092 34.9851 92.3663 35.2574 92.5154L42.3756 96.4389L43.3823 90.6274L43.3849 90.6304Z" fill="#303030"/>
<path d="M57.3857 75.0647L52.8468 84.7181L35.4133 76.5106L36.7737 73.6156L51.7661 80.6735L54.9444 73.915L57.3883 75.0677L57.3857 75.0647Z" fill="#303030"/>
<path d="M57.2573 73.9113L54.6965 71.8402C55.0909 71.7775 55.5005 71.6593 55.9231 71.477C56.3456 71.2947 56.7597 71.0722 57.1622 70.8122C57.5647 70.5522 57.9406 70.2677 58.2896 69.9643C58.6386 69.661 58.9366 69.3597 59.1779 69.0601C60.0224 68.0142 60.4764 67.0964 60.5428 66.3039C60.6093 65.5115 60.3108 64.846 59.6499 64.3105C59.2941 64.0226 58.9183 63.8577 58.5197 63.8184C58.1211 63.779 57.6884 63.8221 57.227 63.9536C56.7656 64.0851 56.2631 64.2788 55.7313 64.5297C55.1963 64.7832 54.6317 65.0573 54.0314 65.3571C53.3471 65.6454 52.6907 65.8989 52.0569 66.1115C51.423 66.3242 50.809 66.4563 50.209 66.5074C49.6091 66.5585 49.0222 66.5031 48.451 66.3442C47.8741 66.185 47.3049 65.8764 46.7323 65.4121C46.0284 64.8454 45.5453 64.1924 45.283 63.4531C45.0208 62.7139 44.9296 61.9528 45.0103 61.1585C45.0937 60.3673 45.3185 59.5746 45.6903 58.781C46.0621 57.9874 46.5265 57.2456 47.0833 56.5555C48.3513 54.9882 49.4495 53.9913 50.3867 53.5625L52.8431 55.5499C51.5438 55.9023 50.3514 56.7485 49.2721 58.0831C48.975 58.4523 48.7101 58.8464 48.4857 59.2687C48.2613 59.6911 48.1104 60.1129 48.039 60.5291C47.9646 60.9479 47.9818 61.3504 48.0853 61.7308C48.1889 62.1112 48.4197 62.4497 48.7756 62.7376C49.1101 63.0071 49.4547 63.1726 49.8124 63.2317C50.1701 63.2907 50.5562 63.267 50.9762 63.1609C51.3933 63.0573 51.8574 62.8864 52.3596 62.656C52.8618 62.4256 53.4325 62.1463 54.0659 61.8177C54.7596 61.516 55.4449 61.2533 56.1189 61.0321C56.7929 60.811 57.4528 60.6708 58.0985 60.6116C58.7442 60.5524 59.3713 60.5993 59.9797 60.7523C60.588 60.9053 61.1745 61.2094 61.7392 61.6647C62.4993 62.2778 63.015 62.95 63.2893 63.6788C63.5636 64.4076 63.6551 65.1631 63.5639 65.9453C63.4727 66.7275 63.2254 67.5186 62.8255 68.3102C62.4255 69.1018 61.9221 69.8777 61.3129 70.6291C61.1089 70.8805 60.8398 71.1725 60.5084 71.5082C60.1769 71.8439 59.8177 72.172 59.4334 72.4954C59.0491 72.8189 58.6671 73.1087 58.2875 73.3646C57.9079 73.6206 57.5675 73.8002 57.2663 73.9034L57.2573 73.9113Z" fill="#303030"/>
<path d="M73.0059 42.055L70.1711 44.4873L73.966 45.8028L73.0051 47.9118L69.5022 45.9356L69.5927 49.953L67.2678 49.8122L67.909 45.8405L64.4142 47.1976L63.965 44.9612L67.638 44.3742L65.223 41.1828L67.3202 39.9254L68.9949 43.5594L71.2445 40.5998L72.9943 42.0598L73.0059 42.055Z" fill="#01AFB0"/>
</g>
<defs>
<clipPath id="clip0_154_3">
<rect width="148" height="148" fill="white" transform="translate(0 97.0938) rotate(-40.9979)"/>
</clipPath>
</defs>
</svg>
